<svg width="100" height="100" viewBox="0 0 24 24" fill="none" xmlns="http://www.w3.org/2000/svg">
  <path d="M12 13C15 13 17.5 15.5 17.5 18.5C17.5 19.5 16.5 20.5 15.5 20.5C14.5 20.5 13.5 20 12 19C10.5 20 9.5 20.5 8.5 20.5C7.5 20.5 6.5 19.5 6.5 18.5C6.5 15.5 9 13 12 13ZM8.5 10.5C9.9 10.5 11 9.4 11 8C11 6.6 9.9 5.5 8.5 5.5C7.1 5.5 6 6.6 6 8C6 9.4 7.1 10.5 8.5 10.5ZM15.5 10.5C16.9 10.5 18 9.4 18 8C18 6.6 16.9 5.5 15.5 5.5C14.1 5.5 13 6.6 13 8C13 9.4 14.1 10.5 15.5 10.5ZM5.5 15C6.4 15 7.1 14.3 7.1 13.4C7.1 12.5 6.4 11.8 5.5 11.8C4.6 11.8 3.9 12.5 3.9 13.4C3.9 14.3 4.6 15 5.5 15ZM18.5 15C19.4 15 20.1 14.3 20.1 13.4C20.1 12.5 19.4 11.8 18.5 11.8C17.6 11.8 16.9 12.5 16.9 13.4C16.9 14.3 17.6 15 18.5 15Z" fill="currentColor"/>
</svg>
